<?xml version="1.0" standalone="no"?>
<!DOCTYPE svg PUBLIC "-//W3C//DTD SVG 20010904//EN"
 "http://www.w3.org/TR/2001/REC-SVG-20010904/DTD/svg10.dtd">
<svg version="1.0" xmlns="http://www.w3.org/2000/svg"
 width="11811.000000pt" height="11811.000000pt" viewBox="0 0 11811.000000 11811.000000"
 preserveAspectRatio="xMidYMid meet">

<g transform="translate(0.000000,11811.000000) scale(0.100000,-0.100000)"
fill="#000000" stroke="none">
<path d="M92450 82039 c-2744 -99 -5215 -872 -7345 -2299 -1087 -729 -2096
-1645 -2975 -2700 -2086 -2506 -3491 -5843 -4034 -9575 -249 -1710 -309 -3503
-176 -5230 262 -3390 1231 -6557 2803 -9165 966 -1601 2133 -2951 3497 -4044
2043 -1638 4505 -2626 7220 -2896 583 -58 944 -74 1610 -74 559 0 773 7 1210
39 3399 255 6349 1575 8704 3895 1248 1230 2283 2680 3121 4375 1617 3269
2360 7178 2120 11145 -282 4640 -1894 8880 -4504 11845 -425 482 -959 1010
-1426 1410 -1805 1545 -3868 2539 -6235 3004 -1118 219 -2375 314 -3590 270z
m1170 -509 c1136 -95 2116 -395 3075 -943 1785 -1020 3294 -2863 4419 -5399
2253 -5078 2730 -12529 1196 -18668 -760 -3038 -1943 -5492 -3488 -7235 -163
-184 -660 -677 -835 -830 -776 -675 -1584 -1159 -2469 -1481 -1439 -522 -3103
-564 -4589 -115 -2065 623 -3846 2199 -5226 4626 -374 658 -741 1430 -1048
2205 -1354 3424 -1982 7757 -1760 12145 84 1660 301 3328 630 4860 671 3118
1797 5731 3272 7593 1115 1407 2421 2378 3858 2868 671 229 1286 345 2055 388
122 7 785 -3 910 -14z"/>
<path d="M66620 81939 c-1141 -53 -2274 -290 -3333 -696 -551 -211 -1149 -502
-1656 -806 -1064 -638 -2007 -1463 -2778 -2429 -428 -536 -810 -1134 -1119
-1750 -160 -319 -253 -534 -457 -1053 -15 -36 -16 240 -16 3153 l-1 3192
-3750 0 -3750 0 0 -248 0 -249 353 -6 c386 -7 557 -17 807 -48 472 -58 814
-171 1109 -366 120 -79 319 -280 400 -403 184 -282 285 -609 320 -1043 15
-180 15 -30094 0 -30274 -35 -434 -136 -761 -320 -1043 -81 -123 -280 -324
-400 -403 -295 -195 -637 -308 -1109 -366 -250 -31 -421 -41 -807 -48 l-353
-6 0 -249 0 -248 5250 0 5250 0 0 248 0 249 -352 6 c-631 12 -995 53 -1343
153 -338 98 -570 229 -785 444 -263 262 -409 570 -479 1011 -40 249 -41 321
-41 2468 0 2264 -3 2131 56 2596 45 366 103 695 185 1060 410 1835 1263 3436
2619 4915 189 207 642 654 870 862 256 231 613 537 622 532 11 -7 1445 -1920
1813 -2419 1857 -2518 3008 -4203 4393 -6426 354 -570 750 -1213 1494 -2434
1161 -1903 1981 -3241 1997 -3258 4 -4 1197 -6 2652 -5 l2645 3 -139 190
c-634 866 -1761 2482 -2849 4085 -2979 4391 -5948 9015 -7700 11995 -189 321
-499 858 -501 868 -3 14 518 311 1543 882 1146 638 1323 737 1635 913 2353
1330 3717 2286 4796 3362 1243 1240 1975 2555 2273 4085 166 857 190 1835 65
2665 -331 2197 -1625 4029 -3644 5160 -1049 588 -2307 973 -3655 1119 -575 63
-1265 85 -1810 60z m-295 -649 c1684 -106 3025 -1056 3845 -2725 489 -995 784
-2192 895 -3630 57 -743 59 -1598 4 -2290 -159 -2038 -786 -3705 -1934 -5140
-229 -286 -441 -522 -745 -826 -483 -483 -911 -850 -1545 -1324 -630 -471
-1141 -814 -2515 -1690 -1561 -995 -2192 -1425 -2920 -1991 -1948 -1513 -3184
-3119 -3942 -5119 -17 -44 -70 -195 -119 -335 l-88 -255 0 8893 -1 8893 31
122 c352 1408 1194 2913 2350 4203 163 182 629 651 799 805 951 858 1935 1484
2993 1906 951 378 1993 559 2892 503z"/>
<path d="M19501 81528 c-267 -692 -6901 -17966 -7096 -18478 -671 -1763 -955
-2547 -1335 -3690 -1008 -3024 -1529 -5357 -1670 -7485 -18 -260 -24 -1022
-11 -1275 58 -1121 251 -1961 621 -2695 210 -418 406 -691 720 -1006 249 -250
480 -427 775 -594 952 -541 2305 -730 3750 -524 1523 217 3043 889 4520 1998
816 613 1654 1400 2406 2261 1760 2015 3244 4598 4135 7195 87 255 93 268 104
240 6 -16 659 -1929 1450 -4250 995 -2921 1450 -4269 1478 -4380 65 -258 77
-352 76 -580 0 -224 -15 -317 -74 -460 -224 -537 -851 -754 -2177 -755 -117 0
-213 -4 -213 -8 0 -14 40 -406 46 -449 l5 -43 5250 0 c2887 0 5249 1 5249 3 0
1 -11 112 -25 247 -14 135 -25 246 -25 248 0 1 -96 2 -212 2 -1187 1 -1896
174 -2467 602 -189 142 -415 382 -563 598 -134 195 -277 469 -371 710 -25 63
-2536 7407 -5580 16320 -3045 8913 -5541 16220 -5547 16238 l-12 32 -1599 0
-1599 0 -9 -22z m3063 -12843 l3546 -10290 -54 -220 c-447 -1811 -1389 -3548
-2741 -5055 -197 -219 -707 -727 -925 -921 -1509 -1343 -3188 -2226 -4955
-2604 -941 -201 -1955 -249 -2783 -130 -1940 280 -3086 1458 -3437 3532 -103
612 -136 1350 -94 2123 102 1903 621 4233 1577 7080 336 998 647 1850 1266
3460 166 432 1368 3607 2672 7057 1303 3450 2372 6269 2376 6265 3 -4 1602
-4637 3552 -10297z"/>
<path d="M38260 81302 l0 -249 353 -6 c386 -7 557 -17 807 -48 472 -58 814
-171 1109 -366 120 -79 319 -280 400 -403 184 -282 285 -609 320 -1043 15
-180 15 -30094 0 -30274 -35 -434 -136 -761 -320 -1043 -81 -123 -280 -324
-400 -403 -295 -195 -637 -308 -1109 -366 -250 -31 -421 -41 -807 -48 l-353
-6 0 -249 0 -248 5250 0 5250 0 0 248 0 249 -352 6 c-387 7 -558 17 -808 48
-472 58 -814 171 -1109 366 -120 79 -319 280 -400 403 -184 282 -285 609 -320
1043 -15 180 -15 30094 0 30274 35 434 136 761 320 1043 81 123 280 324 400
403 295 195 637 308 1109 366 250 31 421 41 808 48 l352 6 0 249 0 248 -5250
0 -5250 0 0 -248z"/>
</g>
</svg>
